<?xml version="1.0" encoding="UTF-8" standalone="no"?>
<svg width="273px" height="104px" viewBox="0 0 273 104" version="1.1" xmlns="http://www.w3.org/2000/svg" xmlns:xlink="http://www.w3.org/1999/xlink">
    <!-- Generator: Sketch 3.8.3 (29802) - http://www.bohemiancoding.com/sketch -->
    <title>Group 5 Copy</title>
    <desc>Created with Sketch.</desc>
    <defs>
        <path d="M132.978098,1.7735479 C134.789754,3.85762086 134.565387,7.01880275 132.482085,8.82978959 L108.336898,29.8188812 C106.251301,31.631863 103.088266,31.4078594 101.280295,29.3280271 C99.4686382,27.2439542 99.6930052,24.0827723 101.776307,22.2717854 L125.921495,1.28269379 C128.007092,-0.53028793 131.170127,-0.306284388 132.978098,1.7735479 Z" id="path-1"></path>
        <path d="M138.299159,3.59047504 C139.15377,0.960253069 141.980925,-0.47846867 144.601852,0.373121848 L144.601852,0.373121848 C147.228122,1.22644872 148.666629,4.04336252 147.809724,6.68064498 L134.217626,48.5128205 C133.363015,51.1430425 130.53586,52.5817642 127.914934,51.7301737 L127.914934,51.7301737 C125.288664,50.8768469 123.850156,48.0599331 124.707061,45.4226506 L138.299159,3.59047504 L138.299159,3.59047504 Z" id="path-2"></path>
        <path d="M146.56881,50.8188812 C144.483213,52.631863 141.320178,52.4078594 139.512207,50.3280271 L139.512207,50.3280271 C137.70055,48.2439542 137.924917,45.0827723 140.008219,43.2717854 L164.153407,22.2826938 C166.239004,20.4697121 169.402039,20.6937156 171.21001,22.7735479 L171.21001,22.7735479 C173.021667,24.8576209 172.7973,28.0188027 170.713997,29.8297896 L146.56881,50.8188812 L146.56881,50.8188812 L146.56881,50.8188812 Z" id="path-3"></path>
    </defs>
    <g id="Symbols" stroke="none" stroke-width="1" fill="none" fill-rule="evenodd">
        <g id="Group-5-Copy" transform="translate(1.000000, 0.000000)">
            <use id="Rectangle-1-Copy" fill="#00C2F5" style="mix-blend-mode: multiply;" xlink:href="#path-1"></use>
            <use id="Rectangle-1-Copy-4" fill="#DE8787" style="mix-blend-mode: multiply;" xlink:href="#path-2"></use>
            <path d="M132.978098,50.3280271 C134.789754,48.2439542 134.565387,45.0827723 132.482085,43.2717854 L108.336898,22.2826938 C106.251301,20.4697121 103.088266,20.6937156 101.280295,22.7735479 C99.4686382,24.8576209 99.6930052,28.0188027 101.776307,29.8297896 L125.921495,50.8188812 C128.007092,52.631863 131.170127,52.4078594 132.978098,50.3280271 Z" id="Rectangle-1-Copy-3" fill="#00C2F5" style="mix-blend-mode: multiply;"></path>
            <path d="M139.512207,1.7735479 C137.70055,3.85762086 137.924917,7.01880275 140.008219,8.82978959 L164.153407,29.8188812 C166.239004,31.631863 169.402039,31.4078594 171.21001,29.3280271 C173.021667,27.2439542 172.7973,24.0827723 170.713997,22.2717854 L146.56881,1.28269379 C144.483213,-0.53028793 141.320178,-0.306284388 139.512207,1.7735479 Z" id="Rectangle-1-Copy" fill="#00C2F5" style="mix-blend-mode: multiply;"></path>
            <use id="Rectangle-1-Copy-3" fill="#00C2F5" style="mix-blend-mode: multiply;" xlink:href="#path-3"></use>
            <g id="Group-3" transform="translate(0.000000, 66.000000)">
                <path d="M23.7383134,37 L16.8650138,37 L16.8650138,33.8314576 C14.9801279,36.203814 12.648429,37.3899744 9.8698472,37.3899744 C7.09126538,37.3899744 4.75956649,36.5856602 2.87468057,34.9770076 C0.989794661,33.3683549 0.0473658409,31.2235169 0.0473658409,28.5424292 C0.0473658409,25.8613415 1.02229221,23.854618 2.97217419,22.5221987 C4.92205616,21.1897793 7.5868549,20.5235797 10.9666503,20.5235797 L16.4262926,20.5235797 L16.4262926,20.3773392 C16.4262926,17.5825084 14.9476542,16.185114 11.9903332,16.185114 C10.72291,16.185114 9.38238621,16.4369699 7.96872177,16.9406894 C6.55505734,17.444409 5.36077254,18.0699867 4.38583155,18.8174415 L1.11979557,14.0890013 C4.56458706,11.5866528 8.49679007,10.3354973 12.9165226,10.3354973 C16.1013298,10.3354973 18.7011334,11.1316871 20.7160115,12.7240907 C22.7308895,14.3164944 23.7383134,16.8350541 23.7383134,20.2798456 L23.7383134,37 L23.7383134,37 Z M16.3775458,27.0069048 L16.3775458,25.7394879 L11.795346,25.7394879 C8.87052306,25.7394879 7.40813351,26.6494191 7.40813351,28.469309 C7.40813351,29.411752 7.75748212,30.1348223 8.45618983,30.6385419 C9.15489754,31.1422614 10.1541971,31.3941173 11.4541184,31.3941173 C12.7540397,31.3941173 13.8995782,30.9960224 14.8907682,30.1998206 C15.8819582,29.4036188 16.3775458,28.3393242 16.3775458,27.0069048 L16.3775458,27.0069048 L16.3775458,27.0069048 Z M38.6498232,16.0388735 L38.6498232,27.7868537 C38.6498232,28.7942927 38.9098036,29.5823582 39.4297721,30.1510738 C39.9497406,30.7197894 40.567194,31.0041429 41.2821507,31.0041429 C42.6470681,31.0041429 43.800731,30.3866895 44.7431739,29.1517643 L47.472995,34.2701789 C45.1981327,36.350053 42.8014388,37.3899744 40.2828412,37.3899744 C37.7642436,37.3899744 35.6356544,36.561287 33.8970096,34.9038874 C32.1583649,33.2464877 31.2890555,30.9879083 31.2890555,28.1280814 L31.2890555,16.0388735 L28.2180068,16.0388735 L28.2180068,10.7742185 L31.2890555,10.7742185 L31.2890555,2.92598279 L38.6498232,2.92598279 L38.6498232,10.7742185 L44.986908,10.7742185 L44.986908,16.0388735 L38.6498232,16.0388735 L38.6498232,16.0388735 Z M58.5578806,29.1273909 C59.7765568,30.4760592 61.336439,31.1503833 63.2375739,31.1503833 C65.1387088,31.1503833 66.698591,30.4760592 67.9172673,29.1273909 C69.1359435,27.7787225 69.7452725,26.0319794 69.7452725,23.8871093 C69.7452725,21.7422391 69.1359435,19.9873716 67.9172673,18.6224542 C66.698591,17.2575369 65.1387088,16.5750884 63.2375739,16.5750884 C61.336439,16.5750884 59.7765568,17.2575369 58.5578806,18.6224542 C57.3392043,19.9873716 56.7298754,21.7422391 56.7298754,23.8871093 C56.7298754,26.0319794 57.3392043,27.7787225 58.5578806,29.1273909 L58.5578806,29.1273909 L58.5578806,29.1273909 Z M73.1575489,33.49023 C70.5252082,36.0900726 67.218583,37.3899744 63.2375739,37.3899744 C59.2565649,37.3899744 55.9499396,36.0900726 53.317599,33.49023 C50.6852583,30.8903873 49.3691077,27.6893791 49.3691077,23.8871093 C49.3691077,20.0848394 50.6852583,16.8757068 53.317599,14.2596151 C55.9499396,11.6435235 59.2565649,10.3354973 63.2375739,10.3354973 C67.218583,10.3354973 70.5252082,11.6435235 73.1575489,14.2596151 C75.7898896,16.8757068 77.1060402,20.0848394 77.1060402,23.8871093 C77.1060402,27.6893791 75.7898896,30.8903873 73.1575489,33.49023 L73.1575489,33.49023 L73.1575489,33.49023 Z M106.397858,22.8634263 L106.397858,37 L99.03709,37 L99.03709,22.6684391 C99.03709,20.588565 98.7202389,19.0611804 98.0865272,18.0862394 C97.4528156,17.1112984 96.4291429,16.6238352 95.0154785,16.6238352 C93.601814,16.6238352 92.3506585,17.1519203 91.2619744,18.2081064 C90.1732903,19.2642925 89.6289564,20.8160503 89.6289564,22.8634263 L89.6289564,37 L82.3169356,37 L82.3169356,10.7742185 L89.6289564,10.7742185 L89.6289564,13.7477737 C91.6438345,11.4729114 93.9511602,10.3354973 96.5510029,10.3354973 C98.2084025,10.3354973 99.711414,10.8229604 101.060082,11.7979014 C102.408751,12.7728424 103.424299,13.9590028 104.106758,15.3564183 C105.114197,13.7640146 106.470969,12.5291079 108.177116,11.651661 C109.883263,10.7742141 111.597508,10.3354973 113.319904,10.3354973 C116.407217,10.3354973 118.893279,11.2535529 120.778165,13.0896918 C122.663051,14.9258306 123.60548,17.582505 123.60548,21.0597945 L123.60548,37 L116.244712,37 L116.244712,22.6684391 C116.244712,18.638683 114.766074,16.6238352 111.808753,16.6238352 C110.346342,16.6238352 109.078937,17.1519203 108.006502,18.2081064 C106.934067,19.2642925 106.397858,20.8160503 106.397858,22.8634263 L106.397858,22.8634263 L106.397858,22.8634263 Z M137.347066,37 L130.035046,37 L130.035046,10.7742185 L137.347066,10.7742185 L137.347066,37 L137.347066,37 Z M129.401337,4.38838696 C129.401337,3.18595974 129.815681,2.17041144 130.644381,1.3417116 C131.473081,0.513011763 132.488629,0.0986680574 133.691056,0.0986680574 C134.893483,0.0986680574 135.909032,0.513011763 136.737731,1.3417116 C137.566431,2.17041144 137.980775,3.18595974 137.980775,4.38838696 C137.980775,5.59081418 137.566431,6.60636248 136.737731,7.43506232 C135.909032,8.26376216 134.893483,8.67810587 133.691056,8.67810587 C132.488629,8.67810587 131.473081,8.26376216 130.644381,7.43506232 C129.815681,6.60636248 129.401337,5.59081418 129.401337,4.38838696 L129.401337,4.38838696 L129.401337,4.38838696 Z M156.645789,30.9066493 C159.083141,30.9066493 161.276726,29.6879913 163.226608,27.2506389 L167.565073,32.1253194 C164.185278,35.635107 160.529304,37.3899744 156.597042,37.3899744 C152.66478,37.3899744 149.341906,36.1469433 146.62832,33.6608438 C143.914734,31.1747443 142.557962,27.9249897 142.557962,23.9114827 C142.557962,19.8979756 143.930983,16.6319723 146.677067,14.1133747 C149.423151,11.5947772 152.68103,10.3354973 156.450802,10.3354973 C158.335687,10.3354973 160.244918,10.7254678 162.178551,11.5054206 C164.112184,12.2853734 165.810181,13.4390363 167.272592,14.9664438 L163.470342,19.938618 C162.625393,18.931179 161.593596,18.1512379 160.374919,17.5987713 C159.156243,17.0463048 157.94571,16.7700756 156.743282,16.7700756 C154.825898,16.7700756 153.176648,17.3956534 151.795482,18.6468276 C150.414315,19.8980019 149.723742,21.6366206 149.723742,23.8627359 C149.723742,26.0888511 150.414315,27.8193454 151.795482,29.0542707 C153.176648,30.2891959 154.793401,30.9066493 156.645789,30.9066493 L156.645789,30.9066493 L156.645789,30.9066493 Z" id="atomic" stroke="#3D4A57" fill="#3D4A57"></path>
                <path d="M192.008584,24.277033 C192.008584,22.8471139 191.813598,21.4903359 191.42362,20.2066585 C191.033642,18.9229811 190.473057,17.8018113 189.741849,16.8431155 C189.01064,15.8844197 188.116954,15.1207243 187.060764,14.5520065 C186.004573,13.9832887 184.810284,13.698934 183.477859,13.698934 C181.950445,13.698934 180.63429,13.9995375 179.529352,14.6007535 C178.424414,15.2019695 177.51448,16.0225358 176.79952,17.062477 C176.08456,18.1024182 175.564598,19.3129566 175.239616,20.6941285 C174.914634,22.0753004 174.784644,23.562069 174.84964,25.154479 C174.84964,26.746889 175.068999,28.1524134 175.507725,29.3710945 C175.94645,30.5897756 176.555781,31.6215768 177.335737,32.466529 C178.115693,33.3114812 179.025628,33.9533103 180.065569,34.3920355 C181.10551,34.8307607 182.242929,35.05012 183.477859,35.05012 C184.842782,35.05012 186.061445,34.7738898 187.133884,34.221421 C188.206323,33.6689522 189.100009,32.9133813 189.814969,31.9546855 C190.529929,30.9959897 191.074265,29.8585711 191.447994,28.5423955 C191.821722,27.2262199 192.008584,25.8044466 192.008584,24.277033 L192.008584,24.277033 L192.008584,24.277033 Z M192.008584,1.90216 L194.933404,1.90216 L194.933404,37 L192.008584,37 L192.008584,32.564023 L191.91109,32.564023 C191.488614,33.4089752 190.944278,34.1482973 190.278065,34.7820115 C189.611853,35.4157257 188.880655,35.9438129 188.084451,36.366289 C187.288246,36.7887651 186.467679,37.1137419 185.622727,37.341229 C184.777775,37.5687161 183.949084,37.682458 183.13663,37.682458 C181.089246,37.682458 179.35062,37.3412324 177.920701,36.658771 C176.490782,35.9763096 175.312741,35.0420014 174.386543,33.8558185 C173.460346,32.6696356 172.786019,31.2641111 172.363543,29.639203 C171.941067,28.0142949 171.729832,26.2756693 171.729832,24.423274 C171.729832,22.6683732 171.957316,20.9784941 172.41229,19.353586 C172.867264,17.7286779 173.55784,16.3069046 174.484037,15.0882235 C175.410235,13.8695424 176.580151,12.8946122 177.993821,12.1634035 C179.407492,11.4321948 181.072997,11.066596 182.990389,11.066596 C184.777788,11.066596 186.49204,11.4646925 188.133197,12.2608975 C189.774355,13.0571025 191.066137,14.2351432 192.008584,15.795055 L192.008584,1.90216 L192.008584,1.90216 Z M211.036083,37.682458 C209.411175,37.6499598 207.891909,37.3574808 206.478239,36.805012 C205.064568,36.2525432 203.829657,35.4238525 202.773467,34.318915 C201.717276,33.2139775 200.880461,31.8328263 200.262996,30.17542 C199.645531,28.5180137 199.336803,26.584402 199.336803,24.374527 C199.336803,22.5221317 199.580536,20.7916305 200.068008,19.1829715 C200.55548,17.5743125 201.286678,16.168788 202.261623,14.966356 C203.236568,13.763924 204.455231,12.813367 205.917648,12.1146565 C207.380065,11.415946 209.086193,11.066596 211.036083,11.066596 C213.018471,11.066596 214.740848,11.415946 216.203265,12.1146565 C217.665682,12.813367 218.884345,13.7557996 219.85929,14.9419825 C220.834235,16.1281654 221.557308,17.5336899 222.028532,19.158598 C222.499755,20.7835061 222.735363,22.5221317 222.735363,24.374527 C222.735363,26.3894131 222.459133,28.2092829 221.906664,29.834191 C221.354195,31.4590991 220.566127,32.8564992 219.542435,34.026433 C218.518742,35.1963668 217.283831,36.0981773 215.837663,36.7318915 C214.391494,37.3656057 212.790984,37.682458 211.036083,37.682458 L211.036083,37.682458 L211.036083,37.682458 Z M219.615555,24.374527 C219.615555,22.8796115 219.453067,21.4822115 219.128085,20.182285 C218.803103,18.8823585 218.299389,17.7530643 217.616928,16.7943685 C216.934467,15.8356727 216.057029,15.0801018 214.98459,14.527633 C213.912151,13.9751642 212.595995,13.698934 211.036083,13.698934 C209.508669,13.698934 208.200638,13.9995375 207.11195,14.6007535 C206.023261,15.2019695 205.137699,15.9981625 204.455238,16.9893565 C203.772777,17.9805505 203.269063,19.1179691 202.944081,20.4016465 C202.619099,21.6853239 202.456611,23.0096042 202.456611,24.374527 C202.456611,25.9344388 202.643473,27.3724609 203.017202,28.6886365 C203.39093,30.0048121 203.935266,31.1341063 204.650226,32.076553 C205.365186,33.0189997 206.258872,33.7501974 207.331311,34.270168 C208.40375,34.7901386 209.638662,35.05012 211.036083,35.05012 C212.563497,35.05012 213.871528,34.7495165 214.960217,34.1483005 C216.048905,33.5470845 216.934467,32.742767 217.616928,31.735324 C218.299389,30.727881 218.803103,29.5904623 219.128085,28.323034 C219.453067,27.0556057 219.615555,25.7394498 219.615555,24.374527 L219.615555,24.374527 L219.615555,24.374527 Z M244.687682,19.694815 C244.167711,17.8099216 243.274025,16.3394018 242.006597,15.2832115 C240.739169,14.2270212 239.130534,13.698934 237.180644,13.698934 C235.685729,13.698934 234.40207,14.0076619 233.329631,14.625127 C232.257192,15.2425921 231.379755,16.0631584 230.697293,17.0868505 C230.014832,18.1105426 229.511118,19.2642101 229.186136,20.5478875 C228.861154,21.8315649 228.698666,23.1233475 228.698666,24.423274 C228.698666,25.7556987 228.85303,27.0556057 229.161763,28.323034 C229.470495,29.5904623 229.966085,30.727881 230.648546,31.735324 C231.331008,32.742767 232.208445,33.5470845 233.280884,34.1483005 C234.353323,34.7495165 235.65323,35.05012 237.180644,35.05012 C239.358021,35.05012 241.104771,34.448913 242.420947,33.246481 C243.737122,32.044049 244.573937,30.3866676 244.931417,28.274287 L248.051225,28.274287 C247.79124,29.671708 247.376894,30.9472417 246.808177,32.1009265 C246.239459,33.2546113 245.508261,34.2457904 244.614562,35.0744935 C243.720862,35.9031966 242.656563,36.5450257 241.421633,37 C240.186703,37.4549743 238.773054,37.682458 237.180644,37.682458 C235.165758,37.682458 233.427132,37.3412324 231.964715,36.658771 C230.502298,35.9763096 229.299884,35.0420014 228.357437,33.8558185 C227.41499,32.6696356 226.71629,31.2641111 226.261316,29.639203 C225.806342,28.0142949 225.578858,26.2756693 225.578858,24.423274 C225.578858,22.6683732 225.830715,20.9866185 226.334437,19.3779595 C226.838158,17.7693005 227.57748,16.3475272 228.552425,15.112597 C229.52737,13.8776668 230.737908,12.8946122 232.184077,12.1634035 C233.630245,11.4321948 235.295751,11.066596 237.180644,11.066596 C240.105479,11.066596 242.469685,11.765296 244.273333,13.162717 C246.076981,14.560138 247.206275,16.7374822 247.661249,19.694815 L244.687682,19.694815 L244.687682,19.694815 Z M254.30701,29.102986 C254.761984,31.2803629 255.582551,32.815878 256.768734,33.7095775 C257.954917,34.603277 259.65292,35.05012 261.862795,35.05012 C262.935235,35.05012 263.861418,34.9201293 264.641374,34.660144 C265.42133,34.4001587 266.063159,34.0508087 266.566881,33.6120835 C267.070602,33.1733583 267.45245,32.6777688 267.712435,32.1253 C267.97242,31.5728312 268.102411,30.9878731 268.102411,30.370408 C268.102411,29.1354778 267.704315,28.2174185 266.90811,27.6162025 C266.111905,27.0149865 265.112601,26.5437702 263.910169,26.2025395 C262.707737,25.8613088 261.40783,25.5688297 260.010409,25.3250935 C258.612988,25.0813573 257.313081,24.7157584 256.110649,24.228286 C254.908217,23.7408136 253.908914,23.0421135 253.112709,22.132165 C252.316504,21.2222165 251.918407,19.9385583 251.918407,18.281152 C251.918407,16.1687714 252.690227,14.4382702 254.23389,13.0895965 C255.777552,11.7409228 257.963021,11.066596 260.790361,11.066596 C263.520207,11.066596 265.738173,11.6759274 267.444327,12.8946085 C269.15048,14.1132896 270.182281,16.1525187 270.539761,19.012357 L267.566194,19.012357 C267.306209,17.0624673 266.566887,15.6894405 265.348206,14.8932355 C264.129525,14.0970305 262.594009,13.698934 260.741614,13.698934 C258.889219,13.698934 257.47557,14.0970305 256.500625,14.8932355 C255.52568,15.6894405 255.038215,16.7374905 255.038215,18.037417 C255.038215,19.1748527 255.436312,20.0441655 256.232517,20.6453815 C257.028722,21.2465975 258.028025,21.7340626 259.230457,22.1077915 C260.432889,22.4815204 261.732796,22.8146215 263.130217,23.107105 C264.527638,23.3995885 265.827545,23.8139338 267.029977,24.3501535 C268.232409,24.8863732 269.231713,25.6094465 270.027918,26.519395 C270.824123,27.4293435 271.222219,28.6967529 271.222219,30.321661 C271.222219,31.524093 270.962238,32.5883919 270.442267,33.5145895 C269.922297,34.4407871 269.207348,35.2126069 268.297399,35.830072 C267.387451,36.4475371 266.306903,36.910629 265.055724,37.2193615 C263.804544,37.528094 262.431518,37.682458 260.936602,37.682458 C259.441687,37.682458 258.117406,37.4630987 256.963722,37.0243735 C255.810037,36.5856483 254.826982,35.9763169 254.014528,35.196361 C253.202074,34.4164051 252.568369,33.5064702 252.113395,32.466529 C251.658421,31.4265878 251.398439,30.305418 251.333443,29.102986 L254.30701,29.102986 L254.30701,29.102986 Z" id="Shape" fill="#5583B2"></path>
            </g>
        </g>
    </g>
</svg>